<mxfile host="app.diagrams.net" agent="Mozilla/5.0 (Windows NT 10.0; Win64; x64; rv:133.0) Gecko/20100101 Firefox/133.0" version="24.8.6">
  <diagram name="Seite-1" id="FMSf7UJW9cwmT74hhUw4">
    <mxGraphModel dx="1062" dy="579" grid="1" gridSize="10" guides="1" tooltips="1" connect="1" arrows="1" fold="1" page="1" pageScale="1" pageWidth="827" pageHeight="1169" math="0" shadow="0">
      <root>
        <mxCell id="0" />
        <mxCell id="1" parent="0" />
        <mxCell id="S2zdr7MEVoiVx0vIaLEo-1" value="Krankenhaus" style="swimlane;fontStyle=1;align=center;verticalAlign=top;childLayout=stackLayout;horizontal=1;startSize=26;horizontalStack=0;resizeParent=1;resizeParentMax=0;resizeLast=0;collapsible=1;marginBottom=0;whiteSpace=wrap;html=1;" vertex="1" parent="1">
          <mxGeometry x="381" y="300" width="160" height="86" as="geometry" />
        </mxCell>
        <mxCell id="S2zdr7MEVoiVx0vIaLEo-2" value="adresse" style="text;strokeColor=none;fillColor=none;align=left;verticalAlign=top;spacingLeft=4;spacingRight=4;overflow=hidden;rotatable=0;points=[[0,0.5],[1,0.5]];portConstraint=eastwest;whiteSpace=wrap;html=1;" vertex="1" parent="S2zdr7MEVoiVx0vIaLEo-1">
          <mxGeometry y="26" width="160" height="26" as="geometry" />
        </mxCell>
        <mxCell id="S2zdr7MEVoiVx0vIaLEo-3" value="" style="line;strokeWidth=1;fillColor=none;align=left;verticalAlign=middle;spacingTop=-1;spacingLeft=3;spacingRight=3;rotatable=0;labelPosition=right;points=[];portConstraint=eastwest;strokeColor=inherit;" vertex="1" parent="S2zdr7MEVoiVx0vIaLEo-1">
          <mxGeometry y="52" width="160" height="8" as="geometry" />
        </mxCell>
        <mxCell id="S2zdr7MEVoiVx0vIaLEo-4" value="&lt;div&gt;&lt;br&gt;&lt;/div&gt;" style="text;strokeColor=none;fillColor=none;align=left;verticalAlign=top;spacingLeft=4;spacingRight=4;overflow=hidden;rotatable=0;points=[[0,0.5],[1,0.5]];portConstraint=eastwest;whiteSpace=wrap;html=1;" vertex="1" parent="S2zdr7MEVoiVx0vIaLEo-1">
          <mxGeometry y="60" width="160" height="26" as="geometry" />
        </mxCell>
        <mxCell id="S2zdr7MEVoiVx0vIaLEo-50" style="edgeStyle=orthogonalEdgeStyle;rounded=0;orthogonalLoop=1;jettySize=auto;html=1;endArrow=block;endFill=0;" edge="1" parent="1">
          <mxGeometry relative="1" as="geometry">
            <mxPoint x="110.75497512437806" y="444" as="sourcePoint" />
            <mxPoint x="110.75" y="324" as="targetPoint" />
          </mxGeometry>
        </mxCell>
        <mxCell id="S2zdr7MEVoiVx0vIaLEo-17" value="Person" style="swimlane;fontStyle=1;align=center;verticalAlign=top;childLayout=stackLayout;horizontal=1;startSize=26;horizontalStack=0;resizeParent=1;resizeParentMax=0;resizeLast=0;collapsible=1;marginBottom=0;whiteSpace=wrap;html=1;" vertex="1" parent="1">
          <mxGeometry x="31" y="440" width="160" height="106" as="geometry" />
        </mxCell>
        <mxCell id="S2zdr7MEVoiVx0vIaLEo-18" value="&lt;div&gt;name&lt;br&gt;&lt;/div&gt;&lt;div&gt;&lt;br&gt;&lt;/div&gt;" style="text;strokeColor=none;fillColor=none;align=left;verticalAlign=top;spacingLeft=4;spacingRight=4;overflow=hidden;rotatable=0;points=[[0,0.5],[1,0.5]];portConstraint=eastwest;whiteSpace=wrap;html=1;" vertex="1" parent="S2zdr7MEVoiVx0vIaLEo-17">
          <mxGeometry y="26" width="160" height="24" as="geometry" />
        </mxCell>
        <mxCell id="S2zdr7MEVoiVx0vIaLEo-20" value="alter" style="text;strokeColor=none;fillColor=none;align=left;verticalAlign=top;spacingLeft=4;spacingRight=4;overflow=hidden;rotatable=0;points=[[0,0.5],[1,0.5]];portConstraint=eastwest;whiteSpace=wrap;html=1;" vertex="1" parent="S2zdr7MEVoiVx0vIaLEo-17">
          <mxGeometry y="50" width="160" height="18" as="geometry" />
        </mxCell>
        <mxCell id="S2zdr7MEVoiVx0vIaLEo-19" value="" style="line;strokeWidth=1;fillColor=none;align=left;verticalAlign=middle;spacingTop=-1;spacingLeft=3;spacingRight=3;rotatable=0;labelPosition=right;points=[];portConstraint=eastwest;strokeColor=inherit;" vertex="1" parent="S2zdr7MEVoiVx0vIaLEo-17">
          <mxGeometry y="68" width="160" height="38" as="geometry" />
        </mxCell>
        <mxCell id="S2zdr7MEVoiVx0vIaLEo-22" value="Patient" style="swimlane;fontStyle=1;align=center;verticalAlign=top;childLayout=stackLayout;horizontal=1;startSize=26;horizontalStack=0;resizeParent=1;resizeParentMax=0;resizeLast=0;collapsible=1;marginBottom=0;whiteSpace=wrap;html=1;" vertex="1" parent="1">
          <mxGeometry x="51" y="260" width="180" height="64" as="geometry" />
        </mxCell>
        <mxCell id="S2zdr7MEVoiVx0vIaLEo-25" value="" style="line;strokeWidth=1;fillColor=none;align=left;verticalAlign=middle;spacingTop=-1;spacingLeft=3;spacingRight=3;rotatable=0;labelPosition=right;points=[];portConstraint=eastwest;strokeColor=inherit;" vertex="1" parent="S2zdr7MEVoiVx0vIaLEo-22">
          <mxGeometry y="26" width="180" height="38" as="geometry" />
        </mxCell>
        <mxCell id="S2zdr7MEVoiVx0vIaLEo-31" value="Arzt" style="swimlane;fontStyle=1;align=center;verticalAlign=top;childLayout=stackLayout;horizontal=1;startSize=26;horizontalStack=0;resizeParent=1;resizeParentMax=0;resizeLast=0;collapsible=1;marginBottom=0;whiteSpace=wrap;html=1;" vertex="1" parent="1">
          <mxGeometry x="245" y="400" width="180" height="94" as="geometry" />
        </mxCell>
        <mxCell id="S2zdr7MEVoiVx0vIaLEo-46" value="&lt;div align=&quot;left&quot;&gt;&amp;nbsp; pageNummer&lt;br&gt;&lt;/div&gt;" style="text;html=1;align=left;verticalAlign=middle;resizable=0;points=[];autosize=1;strokeColor=none;fillColor=none;" vertex="1" parent="S2zdr7MEVoiVx0vIaLEo-31">
          <mxGeometry y="26" width="180" height="30" as="geometry" />
        </mxCell>
        <mxCell id="S2zdr7MEVoiVx0vIaLEo-34" value="" style="line;strokeWidth=1;fillColor=none;align=left;verticalAlign=middle;spacingTop=-1;spacingLeft=3;spacingRight=3;rotatable=0;labelPosition=right;points=[];portConstraint=eastwest;strokeColor=inherit;" vertex="1" parent="S2zdr7MEVoiVx0vIaLEo-31">
          <mxGeometry y="56" width="180" height="38" as="geometry" />
        </mxCell>
        <mxCell id="S2zdr7MEVoiVx0vIaLEo-60" style="edgeStyle=orthogonalEdgeStyle;rounded=0;orthogonalLoop=1;jettySize=auto;html=1;entryX=0.665;entryY=0.933;entryDx=0;entryDy=0;entryPerimeter=0;exitX=1;exitY=0.5;exitDx=0;exitDy=0;endArrow=none;endFill=0;" edge="1" parent="1" source="S2zdr7MEVoiVx0vIaLEo-35" target="S2zdr7MEVoiVx0vIaLEo-40">
          <mxGeometry relative="1" as="geometry">
            <mxPoint x="731" y="380" as="targetPoint" />
            <Array as="points">
              <mxPoint x="727" y="572" />
              <mxPoint x="727" y="369" />
            </Array>
          </mxGeometry>
        </mxCell>
        <mxCell id="S2zdr7MEVoiVx0vIaLEo-35" value="Oberarzt" style="swimlane;fontStyle=1;align=center;verticalAlign=top;childLayout=stackLayout;horizontal=1;startSize=26;horizontalStack=0;resizeParent=1;resizeParentMax=0;resizeLast=0;collapsible=1;marginBottom=0;whiteSpace=wrap;html=1;" vertex="1" parent="1">
          <mxGeometry x="245" y="540" width="180" height="64" as="geometry" />
        </mxCell>
        <mxCell id="S2zdr7MEVoiVx0vIaLEo-36" value="" style="line;strokeWidth=1;fillColor=none;align=left;verticalAlign=middle;spacingTop=-1;spacingLeft=3;spacingRight=3;rotatable=0;labelPosition=right;points=[];portConstraint=eastwest;strokeColor=inherit;" vertex="1" parent="S2zdr7MEVoiVx0vIaLEo-35">
          <mxGeometry y="26" width="180" height="38" as="geometry" />
        </mxCell>
        <mxCell id="S2zdr7MEVoiVx0vIaLEo-37" value="Abteilung" style="swimlane;fontStyle=1;align=center;verticalAlign=top;childLayout=stackLayout;horizontal=1;startSize=26;horizontalStack=0;resizeParent=1;resizeParentMax=0;resizeLast=0;collapsible=1;marginBottom=0;whiteSpace=wrap;html=1;" vertex="1" parent="1">
          <mxGeometry x="641" y="300" width="130" height="70" as="geometry" />
        </mxCell>
        <mxCell id="S2zdr7MEVoiVx0vIaLEo-55" value="" style="endArrow=none;html=1;rounded=0;exitX=-0.011;exitY=0.096;exitDx=0;exitDy=0;exitPerimeter=0;entryX=0.996;entryY=0.127;entryDx=0;entryDy=0;entryPerimeter=0;" edge="1" parent="S2zdr7MEVoiVx0vIaLEo-37" target="S2zdr7MEVoiVx0vIaLEo-1">
          <mxGeometry width="50" height="50" relative="1" as="geometry">
            <mxPoint x="1.1368683772161603e-13" y="10.75200000000001" as="sourcePoint" />
            <mxPoint x="-97.7600000000001" y="9.890000000000015" as="targetPoint" />
          </mxGeometry>
        </mxCell>
        <mxCell id="S2zdr7MEVoiVx0vIaLEo-38" value="name" style="text;strokeColor=none;fillColor=none;align=left;verticalAlign=top;spacingLeft=4;spacingRight=4;overflow=hidden;rotatable=0;points=[[0,0.5],[1,0.5]];portConstraint=eastwest;whiteSpace=wrap;html=1;" vertex="1" parent="S2zdr7MEVoiVx0vIaLEo-37">
          <mxGeometry y="26" width="130" height="26" as="geometry" />
        </mxCell>
        <mxCell id="S2zdr7MEVoiVx0vIaLEo-39" value="" style="line;strokeWidth=1;fillColor=none;align=left;verticalAlign=middle;spacingTop=-1;spacingLeft=3;spacingRight=3;rotatable=0;labelPosition=right;points=[];portConstraint=eastwest;strokeColor=inherit;" vertex="1" parent="S2zdr7MEVoiVx0vIaLEo-37">
          <mxGeometry y="52" width="130" height="8" as="geometry" />
        </mxCell>
        <mxCell id="S2zdr7MEVoiVx0vIaLEo-40" value="&lt;div&gt;&lt;br&gt;&lt;/div&gt;" style="text;strokeColor=none;fillColor=none;align=left;verticalAlign=top;spacingLeft=4;spacingRight=4;overflow=hidden;rotatable=0;points=[[0,0.5],[1,0.5]];portConstraint=eastwest;whiteSpace=wrap;html=1;" vertex="1" parent="S2zdr7MEVoiVx0vIaLEo-37">
          <mxGeometry y="60" width="130" height="10" as="geometry" />
        </mxCell>
        <mxCell id="S2zdr7MEVoiVx0vIaLEo-73" style="edgeStyle=orthogonalEdgeStyle;rounded=0;orthogonalLoop=1;jettySize=auto;html=1;entryX=0;entryY=0.5;entryDx=0;entryDy=0;endArrow=none;endFill=0;" edge="1" parent="1" source="S2zdr7MEVoiVx0vIaLEo-42" target="S2zdr7MEVoiVx0vIaLEo-47">
          <mxGeometry relative="1" as="geometry" />
        </mxCell>
        <mxCell id="S2zdr7MEVoiVx0vIaLEo-79" style="edgeStyle=orthogonalEdgeStyle;rounded=0;orthogonalLoop=1;jettySize=auto;html=1;endArrow=none;endFill=0;exitX=0.25;exitY=1;exitDx=0;exitDy=0;" edge="1" parent="1" source="S2zdr7MEVoiVx0vIaLEo-42">
          <mxGeometry relative="1" as="geometry">
            <mxPoint x="80" y="110" as="sourcePoint" />
            <mxPoint x="245" y="460" as="targetPoint" />
            <Array as="points">
              <mxPoint x="83" y="200" />
              <mxPoint x="10" y="200" />
              <mxPoint x="10" y="566" />
              <mxPoint x="220" y="566" />
              <mxPoint x="220" y="460" />
            </Array>
          </mxGeometry>
        </mxCell>
        <mxCell id="S2zdr7MEVoiVx0vIaLEo-88" style="edgeStyle=orthogonalEdgeStyle;rounded=0;orthogonalLoop=1;jettySize=auto;html=1;endArrow=none;endFill=0;" edge="1" parent="1" source="S2zdr7MEVoiVx0vIaLEo-42" target="S2zdr7MEVoiVx0vIaLEo-22">
          <mxGeometry relative="1" as="geometry" />
        </mxCell>
        <mxCell id="S2zdr7MEVoiVx0vIaLEo-42" value="Rezept" style="swimlane;fontStyle=1;align=center;verticalAlign=top;childLayout=stackLayout;horizontal=1;startSize=26;horizontalStack=0;resizeParent=1;resizeParentMax=0;resizeLast=0;collapsible=1;marginBottom=0;whiteSpace=wrap;html=1;" vertex="1" parent="1">
          <mxGeometry x="26" y="40" width="230" height="64" as="geometry" />
        </mxCell>
        <mxCell id="S2zdr7MEVoiVx0vIaLEo-45" value="" style="line;strokeWidth=1;fillColor=none;align=left;verticalAlign=middle;spacingTop=-1;spacingLeft=3;spacingRight=3;rotatable=0;labelPosition=right;points=[];portConstraint=eastwest;strokeColor=inherit;" vertex="1" parent="S2zdr7MEVoiVx0vIaLEo-42">
          <mxGeometry y="26" width="230" height="38" as="geometry" />
        </mxCell>
        <mxCell id="S2zdr7MEVoiVx0vIaLEo-47" value="Medikamt" style="swimlane;fontStyle=1;align=center;verticalAlign=top;childLayout=stackLayout;horizontal=1;startSize=26;horizontalStack=0;resizeParent=1;resizeParentMax=0;resizeLast=0;collapsible=1;marginBottom=0;whiteSpace=wrap;html=1;" vertex="1" parent="1">
          <mxGeometry x="421" y="40" width="160" height="64" as="geometry" />
        </mxCell>
        <mxCell id="S2zdr7MEVoiVx0vIaLEo-49" value="" style="line;strokeWidth=1;fillColor=none;align=left;verticalAlign=middle;spacingTop=-1;spacingLeft=3;spacingRight=3;rotatable=0;labelPosition=right;points=[];portConstraint=eastwest;strokeColor=inherit;" vertex="1" parent="S2zdr7MEVoiVx0vIaLEo-47">
          <mxGeometry y="26" width="160" height="38" as="geometry" />
        </mxCell>
        <mxCell id="S2zdr7MEVoiVx0vIaLEo-51" style="edgeStyle=orthogonalEdgeStyle;rounded=0;orthogonalLoop=1;jettySize=auto;html=1;entryX=0.014;entryY=0.768;entryDx=0;entryDy=0;endArrow=block;endFill=0;exitX=1.01;exitY=0.092;exitDx=0;exitDy=0;exitPerimeter=0;entryPerimeter=0;" edge="1" parent="1">
          <mxGeometry relative="1" as="geometry">
            <mxPoint x="190.08" y="447.352" as="sourcePoint" />
            <mxPoint x="244.99999999999997" y="446.64" as="targetPoint" />
          </mxGeometry>
        </mxCell>
        <mxCell id="S2zdr7MEVoiVx0vIaLEo-52" style="edgeStyle=orthogonalEdgeStyle;rounded=0;orthogonalLoop=1;jettySize=auto;html=1;entryX=0.5;entryY=0;entryDx=0;entryDy=0;endArrow=block;endFill=0;exitX=0.5;exitY=1;exitDx=0;exitDy=0;" edge="1" parent="1" source="S2zdr7MEVoiVx0vIaLEo-31" target="S2zdr7MEVoiVx0vIaLEo-35">
          <mxGeometry relative="1" as="geometry">
            <mxPoint x="141" y="368" as="sourcePoint" />
            <mxPoint x="141" y="420" as="targetPoint" />
            <Array as="points">
              <mxPoint x="335" y="520" />
              <mxPoint x="335" y="520" />
            </Array>
          </mxGeometry>
        </mxCell>
        <mxCell id="S2zdr7MEVoiVx0vIaLEo-58" value="1" style="text;html=1;align=center;verticalAlign=middle;whiteSpace=wrap;rounded=0;" vertex="1" parent="1">
          <mxGeometry x="531" y="310" width="60" height="30" as="geometry" />
        </mxCell>
        <mxCell id="S2zdr7MEVoiVx0vIaLEo-59" value="1..*" style="text;html=1;align=center;verticalAlign=middle;whiteSpace=wrap;rounded=0;" vertex="1" parent="1">
          <mxGeometry x="601" y="310" width="60" height="30" as="geometry" />
        </mxCell>
        <mxCell id="S2zdr7MEVoiVx0vIaLEo-61" value="1" style="text;html=1;align=center;verticalAlign=middle;whiteSpace=wrap;rounded=0;" vertex="1" parent="1">
          <mxGeometry x="721" y="370" width="60" height="30" as="geometry" />
        </mxCell>
        <mxCell id="S2zdr7MEVoiVx0vIaLEo-62" value="1" style="text;html=1;align=center;verticalAlign=middle;whiteSpace=wrap;rounded=0;" vertex="1" parent="1">
          <mxGeometry x="411" y="574" width="60" height="30" as="geometry" />
        </mxCell>
        <mxCell id="S2zdr7MEVoiVx0vIaLEo-63" value="leitung" style="text;html=1;align=center;verticalAlign=middle;whiteSpace=wrap;rounded=0;" vertex="1" parent="1">
          <mxGeometry x="670" y="370" width="60" height="30" as="geometry" />
        </mxCell>
        <mxCell id="S2zdr7MEVoiVx0vIaLEo-64" style="edgeStyle=orthogonalEdgeStyle;rounded=0;orthogonalLoop=1;jettySize=auto;html=1;entryX=0.083;entryY=0.9;entryDx=0;entryDy=0;entryPerimeter=0;endArrow=none;endFill=0;" edge="1" parent="1" source="S2zdr7MEVoiVx0vIaLEo-46" target="S2zdr7MEVoiVx0vIaLEo-40">
          <mxGeometry relative="1" as="geometry">
            <Array as="points">
              <mxPoint x="654" y="441" />
            </Array>
          </mxGeometry>
        </mxCell>
        <mxCell id="S2zdr7MEVoiVx0vIaLEo-65" value="angestellt" style="text;html=1;align=center;verticalAlign=middle;whiteSpace=wrap;rounded=0;" vertex="1" parent="1">
          <mxGeometry x="591" y="380" width="60" height="30" as="geometry" />
        </mxCell>
        <mxCell id="S2zdr7MEVoiVx0vIaLEo-66" value="1" style="text;html=1;align=center;verticalAlign=middle;whiteSpace=wrap;rounded=0;" vertex="1" parent="1">
          <mxGeometry x="631" y="380" width="60" height="30" as="geometry" />
        </mxCell>
        <mxCell id="S2zdr7MEVoiVx0vIaLEo-67" value="1..*" style="text;html=1;align=center;verticalAlign=middle;whiteSpace=wrap;rounded=0;" vertex="1" parent="1">
          <mxGeometry x="411" y="440" width="60" height="30" as="geometry" />
        </mxCell>
        <mxCell id="S2zdr7MEVoiVx0vIaLEo-68" style="edgeStyle=orthogonalEdgeStyle;rounded=0;orthogonalLoop=1;jettySize=auto;html=1;endArrow=none;endFill=0;exitX=1;exitY=0.25;exitDx=0;exitDy=0;entryX=0;entryY=0.5;entryDx=0;entryDy=0;" edge="1" parent="1" source="S2zdr7MEVoiVx0vIaLEo-22" target="S2zdr7MEVoiVx0vIaLEo-1">
          <mxGeometry relative="1" as="geometry">
            <mxPoint x="291.00497512437806" y="386" as="sourcePoint" />
            <mxPoint x="471" y="300" as="targetPoint" />
            <Array as="points">
              <mxPoint x="301" y="276" />
              <mxPoint x="301" y="340" />
              <mxPoint x="381" y="340" />
            </Array>
          </mxGeometry>
        </mxCell>
        <mxCell id="S2zdr7MEVoiVx0vIaLEo-69" value="0..250" style="text;html=1;align=center;verticalAlign=middle;whiteSpace=wrap;rounded=0;" vertex="1" parent="1">
          <mxGeometry x="321" y="340" width="60" height="30" as="geometry" />
        </mxCell>
        <mxCell id="S2zdr7MEVoiVx0vIaLEo-71" value="1" style="text;html=1;align=center;verticalAlign=middle;whiteSpace=wrap;rounded=0;" vertex="1" parent="1">
          <mxGeometry x="211" y="277" width="60" height="30" as="geometry" />
        </mxCell>
        <mxCell id="S2zdr7MEVoiVx0vIaLEo-72" value="behandlung" style="text;html=1;align=center;verticalAlign=middle;whiteSpace=wrap;rounded=0;" vertex="1" parent="1">
          <mxGeometry x="311" y="307" width="60" height="30" as="geometry" />
        </mxCell>
        <mxCell id="S2zdr7MEVoiVx0vIaLEo-74" value="&lt;div&gt;1..4&lt;/div&gt;" style="text;html=1;align=center;verticalAlign=middle;whiteSpace=wrap;rounded=0;" vertex="1" parent="1">
          <mxGeometry x="361" y="74" width="60" height="30" as="geometry" />
        </mxCell>
        <mxCell id="S2zdr7MEVoiVx0vIaLEo-75" value="0..*" style="text;html=1;align=center;verticalAlign=middle;whiteSpace=wrap;rounded=0;" vertex="1" parent="1">
          <mxGeometry x="256" y="74" width="60" height="30" as="geometry" />
        </mxCell>
        <mxCell id="S2zdr7MEVoiVx0vIaLEo-77" value="verschrieben" style="text;html=1;align=center;verticalAlign=middle;whiteSpace=wrap;rounded=0;" vertex="1" parent="1">
          <mxGeometry x="271" y="40" width="60" height="30" as="geometry" />
        </mxCell>
        <mxCell id="S2zdr7MEVoiVx0vIaLEo-82" value="0..*" style="text;html=1;align=center;verticalAlign=middle;whiteSpace=wrap;rounded=0;" vertex="1" parent="1">
          <mxGeometry x="31" y="104" width="55" height="30" as="geometry" />
        </mxCell>
        <mxCell id="S2zdr7MEVoiVx0vIaLEo-85" value="erstellt" style="text;html=1;align=center;verticalAlign=middle;whiteSpace=wrap;rounded=0;" vertex="1" parent="1">
          <mxGeometry x="211" y="480" width="60" height="40" as="geometry" />
        </mxCell>
        <mxCell id="S2zdr7MEVoiVx0vIaLEo-86" value="1" style="text;html=1;align=center;verticalAlign=middle;whiteSpace=wrap;rounded=0;" vertex="1" parent="1">
          <mxGeometry x="181" y="485" width="60" height="30" as="geometry" />
        </mxCell>
        <mxCell id="S2zdr7MEVoiVx0vIaLEo-89" value="0..*" style="text;html=1;align=center;verticalAlign=middle;whiteSpace=wrap;rounded=0;" vertex="1" parent="1">
          <mxGeometry x="90" y="104" width="60" height="30" as="geometry" />
        </mxCell>
        <mxCell id="S2zdr7MEVoiVx0vIaLEo-90" value="1" style="text;html=1;align=center;verticalAlign=middle;whiteSpace=wrap;rounded=0;" vertex="1" parent="1">
          <mxGeometry x="90" y="230" width="60" height="30" as="geometry" />
        </mxCell>
        <mxCell id="S2zdr7MEVoiVx0vIaLEo-91" value="besitzt" style="text;html=1;align=center;verticalAlign=middle;whiteSpace=wrap;rounded=0;" vertex="1" parent="1">
          <mxGeometry x="141" y="230" width="60" height="30" as="geometry" />
        </mxCell>
        <mxCell id="S2zdr7MEVoiVx0vIaLEo-95" value="krankhaus-abteilungen" style="text;html=1;align=center;verticalAlign=middle;whiteSpace=wrap;rounded=0;" vertex="1" parent="1">
          <mxGeometry x="560" y="277" width="60" height="30" as="geometry" />
        </mxCell>
      </root>
    </mxGraphModel>
  </diagram>
</mxfile>
